<?xml version="1.0" standalone="no"?>
<!DOCTYPE svg PUBLIC "-//W3C//DTD SVG 20010904//EN"
 "http://www.w3.org/TR/2001/REC-SVG-20010904/DTD/svg10.dtd">
<svg version="1.0" xmlns="http://www.w3.org/2000/svg"
 width="700.000000pt" height="700.000000pt" viewBox="0 0 700.000000 700.000000"
 preserveAspectRatio="xMidYMid meet">
<metadata>
Created by potrace 1.11, written by Peter Selinger 2001-2013
</metadata>
<g transform="translate(0.000000,700.000000) scale(0.100000,-0.100000)"
fill="#000000" stroke="none">
<path d="M3287 6964 c-1 -1 -54 -5 -117 -8 -63 -4 -149 -11 -190 -16 -41 -5
-97 -11 -125 -14 -81 -10 -115 -15 -200 -30 -44 -9 -96 -18 -115 -21 -19 -3
-43 -8 -52 -11 -9 -3 -25 -6 -35 -8 -177 -35 -493 -134 -658 -206 -228 -100
-356 -169 -515 -275 -427 -287 -719 -639 -943 -1135 -58 -128 -135 -357 -171
-510 -2 -8 -9 -33 -14 -55 -17 -65 -50 -236 -57 -294 -4 -30 -8 -62 -10 -71
-4 -18 -23 -178 -30 -245 -23 -224 -23 -737 0 -995 2 -25 7 -79 10 -120 3 -41
8 -91 10 -110 2 -19 7 -62 10 -95 4 -33 15 -123 27 -200 11 -77 21 -151 23
-165 3 -25 13 -85 21 -124 2 -11 8 -46 14 -76 6 -30 12 -66 15 -80 3 -14 9
-47 15 -75 115 -598 343 -1254 542 -1565 118 -183 257 -306 385 -340 45 -11
132 -14 171 -6 74 16 186 86 247 155 16 19 38 43 49 55 40 46 96 136 139 226
41 87 110 274 121 332 2 12 11 50 20 83 8 33 17 71 20 85 2 14 9 43 14 65 6
22 13 51 16 65 2 14 11 55 20 91 8 37 17 78 20 90 141 680 467 1045 1072 1198
103 26 323 66 419 76 90 9 165 17 185 20 14 2 59 6 100 10 41 3 95 8 120 10
25 2 90 7 145 10 55 4 120 8 145 10 25 2 88 6 140 10 52 3 120 8 150 10 30 2
98 7 150 10 153 9 232 15 285 20 28 2 82 7 120 10 73 7 119 11 195 20 25 3 64
8 88 10 76 9 124 15 151 20 14 2 69 11 121 19 181 28 371 75 540 133 442 150
690 406 775 800 32 147 37 404 11 553 -3 14 -7 41 -10 60 -62 419 -326 973
-656 1375 -100 123 -117 142 -230 255 -255 255 -485 423 -788 574 -160 81
-410 182 -492 201 -8 2 -44 13 -80 24 -69 21 -238 64 -305 77 -22 4 -42 8 -45
9 -3 1 -30 5 -60 10 -30 5 -57 9 -60 10 -15 3 -90 15 -127 20 -24 3 -62 7 -85
10 -24 3 -59 7 -78 10 -80 11 -564 26 -573 19z"/>
</g>
</svg>
